<svg xmlns="http://www.w3.org/2000/svg" width="122.224" height="127.568" viewBox="0 0 122.224 127.568"><defs><style>.a{fill:#1bb0dc;}.b{fill:#0a437f;}</style></defs><g transform="translate(-10.234 0)"><path class="a" d="M92.446,77.626c-29.629,0-53.651,17.807-53.651,28.015s24.023,79.284,53.651,79.284S146.1,115.851,146.1,105.641,122.075,77.626,92.446,77.626Zm28.764,42.765L90.7,150.9a6.179,6.179,0,0,1-8.741,0l-15-15a6.181,6.181,0,0,1,8.741-8.742l10.625,10.625,26.139-26.138a6.181,6.181,0,0,1,8.742,8.741Z" transform="translate(-21.104 -57.357)"/><path class="b" d="M130.082,19.321c-32.937-25.759-84.545-25.763-117.473,0a6.181,6.181,0,1,0,7.615,9.74C48.9,6.635,93.8,6.64,122.467,29.06a6.181,6.181,0,1,0,7.615-9.74Z" transform="translate(0 0)"/></g></svg>