<svg xmlns="http://www.w3.org/2000/svg" width="146.618" height="128" viewBox="0 0 146.618 128"><defs><style>.a{fill:#fff;}</style></defs><g transform="translate(-4 -12)"><g transform="translate(4 12)"><rect class="a" width="30" height="14" rx="7" transform="translate(79 0)"/><path class="a" d="M70.764,188H47.491a3.491,3.491,0,0,0,0,6.982H70.764a3.491,3.491,0,0,0,0-6.982Z" transform="translate(-32.364 -136.8)"/><path class="a" d="M58.255,287.491A3.491,3.491,0,0,0,54.764,284H31.491a3.491,3.491,0,1,0,0,6.982H54.764A3.491,3.491,0,0,0,58.255,287.491Z" transform="translate(-21.018 -204.873)"/><path class="a" d="M79.782,332H63.491a3.491,3.491,0,1,0,0,6.982H79.782a3.491,3.491,0,1,0,0-6.982Z" transform="translate(-43.709 -238.909)"/><path class="a" d="M41.236,239.491A3.491,3.491,0,0,0,37.745,236H7.491a3.491,3.491,0,1,0,0,6.982H37.745A3.491,3.491,0,0,0,41.236,239.491Z" transform="translate(-4 -170.836)"/><path class="a" d="M231.564,175.564V136a39.564,39.564,0,1,0,39.564,39.564Z" transform="translate(-137.309 -99.927)"/><path class="a" d="M238.652,94.5l3.743-3.743a3.491,3.491,0,1,0-4.937-4.937l-3.9,3.9a52.147,52.147,0,0,0-26.218-11.434V72H193.382v6.284a52.147,52.147,0,0,0-26.218,11.433l-3.9-3.9a3.491,3.491,0,1,0-4.937,4.937l3.743,3.743a52.364,52.364,0,1,0,76.578,0Zm-38.289,78.734a43.055,43.055,0,1,1,43.055-43.055A43.055,43.055,0,0,1,200.364,173.236Z" transform="translate(-106.109 -54.545)"/></g></g></svg>