<svg xmlns="http://www.w3.org/2000/svg" width="86.706" height="74.5" viewBox="0 0 86.706 74.5"><defs><style>.a{fill:#fff;}</style></defs><path class="a" d="M83.421,36.038H76.545v2.54h5.825l1.8,1.8V86.953H13.971v2.54H84.165v3.284l-1.8,1.8H4.336l-1.8-1.8V89.494h8.891v-2.54H2.54V40.374l1.8-1.8H74v-2.54H3.284L0,39.322V93.83l3.284,3.284H36.279l-1.665,3.57H22.053l-4.365,5.585v4.269H29.118V108h-8.89v-.854l3.064-3.92H63.415l3.064,3.92V108H31.658v2.54h37.36v-4.269l-4.365-5.585H52.091l-1.665-3.57H83.421l3.284-3.284V39.322ZM49.289,100.684H37.417l1.665-3.57h8.543Z" transform="translate(0 -36.038)"/><path class="a" d="M112.648,186.467h.014a1.681,1.681,0,0,1,1.666,1.693l2.54.021a4.227,4.227,0,0,0-3.023-4.08v-2.714H111.3v2.761a4.219,4.219,0,0,0,1.309,8.219,1.68,1.68,0,0,1,1.164,2.877,1.662,1.662,0,0,1-1.192.482,1.681,1.681,0,0,1-1.666-1.693l-2.54-.021a4.228,4.228,0,0,0,2.925,4.051v2.743h2.54v-2.727a4.22,4.22,0,0,0-1.211-8.253,1.68,1.68,0,0,1,.014-3.359Z" transform="translate(-90.025 -156.773)"/><path class="a" d="M129.036,124.456a5.076,5.076,0,0,0,4.072-2.046l4.556,2.046h4.844v-2.54h-4.3l-4.139-1.859a5.073,5.073,0,0,0-5.033-5.762,5.05,5.05,0,0,0-2.432.621l-9.834-13.435a5.079,5.079,0,0,0-9.286-4.117L94.817,93.578a5.081,5.081,0,0,0-9.905-.3H80.941v2.54h3.971a5.08,5.08,0,0,0,9.732.355l12.4,3.707a5.076,5.076,0,0,0,8.085,3.659l9.608,13.126a5.076,5.076,0,0,0,4.3,7.787Zm2.54-5.08a2.54,2.54,0,1,1-2.54-2.54A2.543,2.543,0,0,1,131.576,119.376ZM89.832,97.093a2.54,2.54,0,1,1,2.54-2.54A2.543,2.543,0,0,1,89.832,97.093ZM112.108,102a2.54,2.54,0,1,1,2.54-2.54A2.543,2.543,0,0,1,112.108,102Z" transform="translate(-67.234 -80.423)"/><path class="a" d="M182.191,281.055h2.54v2.54h-2.54Z" transform="translate(-151.338 -239.562)"/><path class="a" d="M212.192,281.055h8.891v2.54h-8.891Z" transform="translate(-176.258 -239.562)"/><path class="a" d="M212.192,251.055h8.891v2.54h-8.891Z" transform="translate(-176.258 -214.643)"/><path class="a" d="M182.191,251.055h2.54v2.54h-2.54Z" transform="translate(-151.338 -214.643)"/><path class="a" d="M182.191,221.055h2.54v2.54h-2.54Z" transform="translate(-151.338 -189.723)"/><path class="a" d="M212.192,221.055h8.891v2.54h-8.891Z" transform="translate(-176.258 -189.723)"/><path class="a" d="M356.192,119.473h8.891v2.54h-8.891Z" transform="translate(-295.872 -105.344)"/><path class="a" d="M356.192,149.472h8.891v2.54h-8.891Z" transform="translate(-295.872 -130.262)"/><path class="a" d="M30,103.538h2.54v2.54H30Z" transform="translate(-24.92 -92.107)"/><path class="a" d="M30,73.538h2.54v2.54H30Z" transform="translate(-24.92 -67.187)"/></svg>