<svg xmlns="http://www.w3.org/2000/svg" width="75" height="72.895" viewBox="0 0 75 72.895"><defs><style>.a{fill:#fff;}</style></defs><g transform="translate(0 0)"><path class="a" d="M20.244,314H2.274A2.277,2.277,0,0,0,0,316.271v23.414a2.276,2.276,0,0,0,2.274,2.274h17.97a2.276,2.276,0,0,0,2.274-2.274v-5.667a1.1,1.1,0,1,0-2.2,0v5.667a.077.077,0,0,1-.077.077H2.274a.077.077,0,0,1-.077-.077V316.271a.077.077,0,0,1,.077-.077h17.97a.077.077,0,0,1,.077.077v12.673a1.1,1.1,0,1,0,2.2,0V316.271A2.277,2.277,0,0,0,20.244,314Z" transform="translate(0 -269.065)"/><path class="a" d="M199.426,314h-17.97a2.276,2.276,0,0,0-2.274,2.274v23.414a2.276,2.276,0,0,0,2.274,2.274h17.97a2.276,2.276,0,0,0,2.274-2.274V316.271A2.276,2.276,0,0,0,199.426,314Zm.077,25.688a.077.077,0,0,1-.077.077h-17.97a.077.077,0,0,1-.077-.077V316.271a.077.077,0,0,1,.077-.077h17.97a.077.077,0,0,1,.077.077v23.414Z" transform="translate(-152.941 -269.065)"/><path class="a" d="M378.608,314h-17.97a2.276,2.276,0,0,0-2.274,2.274v23.414a2.276,2.276,0,0,0,2.274,2.274h17.97a2.276,2.276,0,0,0,2.274-2.274V316.271A2.276,2.276,0,0,0,378.608,314Zm.077,25.688a.077.077,0,0,1-.077.077h-17.97a.077.077,0,0,1-.077-.077V316.271a.077.077,0,0,1,.077-.077h17.97a.077.077,0,0,1,.077.077Z" transform="translate(-305.882 -269.065)"/><path class="a" d="M42.454,351.421a1.833,1.833,0,0,0-1.831-1.831h-10.6a1.833,1.833,0,0,0-1.831,1.831v4.824a1.833,1.833,0,0,0,1.831,1.831h10.6a1.833,1.833,0,0,0,1.831-1.831Zm-2.2,4.459H30.392v-4.093h9.866Z" transform="translate(-24.066 -299.445)"/><path class="a" d="M42.453,426.079a1.1,1.1,0,0,0-1.1-1.1H29.292a1.1,1.1,0,0,0,0,2.2H41.355A1.1,1.1,0,0,0,42.453,426.079Z" transform="translate(-24.065 -363.795)"/><path class="a" d="M29.292,454.337a1.1,1.1,0,0,0,0,2.2h7.992a1.1,1.1,0,0,0,0-2.2Z" transform="translate(-24.065 -388.852)"/><path class="a" d="M219.8,349.59h-10.6a1.833,1.833,0,0,0-1.831,1.831v4.824a1.833,1.833,0,0,0,1.831,1.831h10.6a1.833,1.833,0,0,0,1.831-1.831v-4.824A1.833,1.833,0,0,0,219.8,349.59Zm-.366,6.29h-9.866v-4.093h9.866Z" transform="translate(-177.006 -299.445)"/><path class="a" d="M220.537,424.981H208.474a1.1,1.1,0,0,0,0,2.2h12.062a1.1,1.1,0,0,0,0-2.2Z" transform="translate(-177.006 -363.795)"/><path class="a" d="M216.466,454.337h-7.992a1.1,1.1,0,0,0,0,2.2h7.992a1.1,1.1,0,1,0,0-2.2Z" transform="translate(-177.006 -388.852)"/><path class="a" d="M398.987,349.59h-10.6a1.833,1.833,0,0,0-1.831,1.831v4.824a1.833,1.833,0,0,0,1.831,1.831h10.6a1.833,1.833,0,0,0,1.831-1.831v-4.824A1.833,1.833,0,0,0,398.987,349.59Zm-.366,6.29h-9.866v-4.093h9.866Z" transform="translate(-329.947 -299.445)"/><path class="a" d="M399.72,424.981H387.657a1.1,1.1,0,0,0,0,2.2H399.72a1.1,1.1,0,0,0,0-2.2Z" transform="translate(-329.947 -363.795)"/><path class="a" d="M395.649,454.337h-7.992a1.1,1.1,0,0,0,0,2.2h7.992a1.1,1.1,0,0,0,0-2.2Z" transform="translate(-329.947 -388.852)"/><path class="a" d="M70.475,49.635a1.1,1.1,0,0,0,1.1-1.1V41.324H95.618v7.213a1.1,1.1,0,0,0,2.2,0V41.324H121.86v7.213a1.1,1.1,0,0,0,2.2,0V40.225a1.1,1.1,0,0,0-1.1-1.1H97.815V35.15h10.567a2.277,2.277,0,0,0,2.274-2.274v-.1c0-.143-.006-17.945-.01-17.992a1.188,1.188,0,0,0-.32-.7L103.6,7.5a1.16,1.16,0,0,0-.768-.313h-2.7a1.1,1.1,0,0,0,0,2.2h1.6v4.257a2.321,2.321,0,0,0,2.318,2.318h4.4V32.876a.077.077,0,0,1-.077.077H85.051a.077.077,0,0,1-.077-.077V9.462a.077.077,0,0,1,.077-.077h9.963a1.1,1.1,0,1,0,0-2.2H85.051a2.277,2.277,0,0,0-2.274,2.274V32.876a2.277,2.277,0,0,0,2.274,2.274H95.618v3.977H70.475a1.1,1.1,0,0,0-1.1,1.1v8.311a1.1,1.1,0,0,0,1.1,1.1Zm33.581-35.872a.122.122,0,0,1-.122-.122V10.9l2.5,2.442.434.424h-2.808Z" transform="translate(-59.217 -7.188)"/><path class="a" d="M224.654,84.431H214.3a1.1,1.1,0,0,0,0,2.2h10.357a1.1,1.1,0,0,0,0-2.2Z" transform="translate(-181.976 -73.119)"/><path class="a" d="M208.682,117.79H191.708a1.1,1.1,0,1,0,0,2.2h16.973a1.1,1.1,0,0,0,0-2.2Z" transform="translate(-162.695 -101.592)"/><path class="a" d="M208.682,151.149H191.708a1.1,1.1,0,1,0,0,2.2h16.973a1.1,1.1,0,0,0,0-2.2Z" transform="translate(-162.695 -130.066)"/></g></svg>