<svg xmlns="http://www.w3.org/2000/svg" width="51.726" height="84.394" viewBox="0 0 51.726 84.394"><defs><style>.a{fill:#fff;}</style></defs><path class="a" d="M125.445,243.057a2.725,2.725,0,0,1-2.722-2.722H120a5.437,5.437,0,0,0,4.084,5.251V248.5h2.722v-2.916a5.433,5.433,0,0,0-1.361-10.7,2.722,2.722,0,1,1,2.722-2.722h2.722a5.437,5.437,0,0,0-4.084-5.251V224h-2.722v2.916a5.433,5.433,0,0,0,1.361,10.7,2.722,2.722,0,1,1,0,5.445Zm0,0" transform="translate(-99.582 -185.886)"/><path class="a" d="M65.7,227.391A17.7,17.7,0,1,0,48,209.7,17.716,17.716,0,0,0,65.7,227.391Zm0-32.669A14.973,14.973,0,1,1,50.722,209.7,14.991,14.991,0,0,1,65.7,194.722Zm0,0" transform="translate(-39.833 -159.331)"/><path class="a" d="M41.454,13.612H34.666a9.512,9.512,0,0,0,.726-3.624v-.46a9.528,9.528,0,0,0-19.057,0v.46a9.507,9.507,0,0,0,.726,3.624H10.272L0,25.351v54.96a4.089,4.089,0,0,0,4.084,4.084H47.642a4.089,4.089,0,0,0,4.084-4.084V25.351ZM20.027,13.49a6.8,6.8,0,0,1-.97-3.5v-.46a6.806,6.806,0,1,1,13.612,0v.46a6.8,6.8,0,0,1-.97,3.5l-.074.122H20.1ZM47.642,81.672H4.084a1.362,1.362,0,0,1-1.361-1.361V27.224H17.7V24.5H4.362l7.146-8.167H29.992l-1.921,3.2a5.384,5.384,0,0,0-2.208-.478A5.445,5.445,0,1,0,31.308,24.5a5.39,5.39,0,0,0-1.1-3.242l2.956-4.925h7.051L47.364,24.5H34.03v2.722H49V80.311a1.362,1.362,0,0,1-1.361,1.361ZM28.585,24.5a2.722,2.722,0,1,1-2.722-2.722,2.659,2.659,0,0,1,.784.13L25.512,23.8l2.334,1.4.693-1.156a2.635,2.635,0,0,1,.047.455Zm0,0" transform="translate(0 0)"/><path class="a" d="M32,448H67.391v2.722H32Zm0,0" transform="translate(-26.555 -371.773)"/><path class="a" d="M256,448h2.722v2.722H256Zm0,0" transform="translate(-212.442 -371.773)"/><path class="a" d="M32,416H72.836v2.722H32Zm0,0" transform="translate(-26.555 -345.218)"/></svg>