<svg xmlns="http://www.w3.org/2000/svg" width="74.5" height="74.5" viewBox="0 0 74.5 74.5"><defs><style>.a{fill:#fff;}</style></defs><path class="a" d="M52,57h2.4v2.4H52Z" transform="translate(9.282 10.29)"/><path class="a" d="M48,57h2.4v2.4H48Z" transform="translate(8.476 10.29)"/><path class="a" d="M44,57h2.4v2.4H44Z" transform="translate(7.669 10.29)"/><path class="a" d="M44,53H56.016v2.4H44Z" transform="translate(7.669 9.484)"/><path class="a" d="M75.5,14.218a3.609,3.609,0,0,0-3.6-3.6V8.21A3.6,3.6,0,1,0,71.9,1H52.669a3.6,3.6,0,1,0,0,7.21v2.4a3.6,3.6,0,0,0-3.384,2.4H47.863a6.015,6.015,0,0,0-6.008,6.008V44.258h-2.4V19.024a6.015,6.015,0,0,0-6.008-6.008h-1.2V4.6a3.609,3.609,0,0,0-3.6-3.6H4.6A3.609,3.609,0,0,0,1,4.6V21.427a3.609,3.609,0,0,0,3.6,3.6H28.637a3.609,3.609,0,0,0,3.6-3.6V15.419h1.2a3.609,3.609,0,0,1,3.6,3.6V44.258h-2.4V38.25a6.015,6.015,0,0,0-6.008-6.008H24.911a6.018,6.018,0,0,0-5.887-4.806H9.411a6.008,6.008,0,1,0,0,12.016H25.032V34.645h3.6a3.609,3.609,0,0,1,3.6,3.6v6.008H7.467L1.459,56.274H7.008V75.5H69.492V56.274h5.549L69.033,44.258H49.065v-3.6a3.609,3.609,0,0,1,3.6-3.6h1.323a6.008,6.008,0,1,0,0-2.4H52.669a6.015,6.015,0,0,0-6.008,6.008v3.6h-2.4V19.024a3.609,3.609,0,0,1,3.6-3.6h1.423a3.6,3.6,0,0,0,3.384,2.4v2.4a3.6,3.6,0,1,0,0,7.21H71.9a3.6,3.6,0,1,0,0-7.21v-2.4A3.609,3.609,0,0,0,75.5,14.218Zm-45.661,7.21a1.2,1.2,0,0,1-1.2,1.2H4.6a1.2,1.2,0,0,1-1.2-1.2V4.6A1.2,1.2,0,0,1,4.6,3.4H28.637a1.2,1.2,0,0,1,1.2,1.2Zm-7.21,15.621H9.411a3.6,3.6,0,1,1,0-7.21h9.613a3.609,3.609,0,0,1,3.6,3.6Zm37.25-4.806a3.6,3.6,0,1,1-3.6,3.6A3.609,3.609,0,0,1,59.879,32.242ZM8.952,46.661H26.693l-3.6,7.21H5.347Zm.459,9.613H24.573l4.064-8.128V73.1H9.411ZM67.089,73.1H31.04V48.146L35.1,56.274H67.089Zm4.064-19.226H36.589l-3.6-7.21H67.548ZM51.468,4.6a1.2,1.2,0,0,1,1.2-1.2H71.9a1.2,1.2,0,1,1,0,2.4H52.669A1.2,1.2,0,0,1,51.468,4.6Zm3.6,3.6H69.492v2.4H55.073Zm-3.6,6.008a1.2,1.2,0,0,1,1.2-1.2H71.9a1.2,1.2,0,1,1,0,2.4H52.669A1.2,1.2,0,0,1,51.468,14.218ZM73.1,23.831a1.2,1.2,0,0,1-1.2,1.2H52.669a1.2,1.2,0,1,1,0-2.4H71.9A1.2,1.2,0,0,1,73.1,23.831Zm-3.6-3.6H55.073v-2.4H69.492Z" transform="translate(-1 -1)"/><path class="a" d="M19.419,7.4H14.613v2.4H9.806v2.4H5v7.21H26.629V5h-7.21ZM14.613,12.21v4.806h-2.4V12.21Zm-7.21,2.4h2.4v2.4H7.4Zm9.613,2.4V9.806h2.4v7.21ZM21.823,7.4h2.4v9.613h-2.4Z" transform="translate(-0.194 -0.194)"/><path class="a" d="M7,27H9.4v2.4H7Z" transform="translate(0.21 4.242)"/><path class="a" d="M11,27h2.4v2.4H11Z" transform="translate(1.016 4.242)"/><path class="a" d="M15,27h2.4v2.4H15Z" transform="translate(1.823 4.242)"/><path class="a" d="M53,41h2.4v2.4H53Z" transform="translate(9.484 7.065)"/><path class="a" d="M49,41h2.4v2.4H49Z" transform="translate(8.677 7.065)"/><path class="a" d="M45,41h2.4v2.4H45Z" transform="translate(7.871 7.065)"/><path class="a" d="M10,49h2.4v2.4H10Z" transform="translate(0.815 8.677)"/><path class="a" d="M10,53h2.4v2.4H10Z" transform="translate(0.815 9.484)"/><path class="a" d="M10,57h2.4v2.4H10Z" transform="translate(0.815 10.29)"/></svg>