<svg xmlns="http://www.w3.org/2000/svg" width="89.618" height="128" viewBox="0 0 89.618 128"><defs><style>.a{fill:#fff;}</style></defs><g transform="translate(-77.766 -1.001)"><g transform="translate(77.766 1.001)"><g transform="translate(0 0)"><path class="a" d="M216.727,11.668a2.134,2.134,0,0,0,2.133-2.133v-6.4a2.133,2.133,0,1,0-4.267,0v6.4A2.134,2.134,0,0,0,216.727,11.668Z" transform="translate(-180.387 -1.001)"/><path class="a" d="M123.472,90.6h6.357a2.133,2.133,0,0,0,0-4.267h-6.357a2.133,2.133,0,0,0,0,4.267Z" transform="translate(-110.446 -65.001)"/><path class="a" d="M273.936,88.467a2.134,2.134,0,0,0,2.133,2.133h6.357a2.133,2.133,0,1,0,0-4.267h-6.357A2.134,2.134,0,0,0,273.936,88.467Z" transform="translate(-224.893 -65.001)"/><path class="a" d="M259.113,35.137a2.13,2.13,0,0,0,1.513-.629l4.239-4.267a2.134,2.134,0,0,0-3.027-3.008L257.6,31.5a2.133,2.133,0,0,0,1.513,3.637Z" transform="translate(-212.176 -20.203)"/><path class="a" d="M151.632,34.5a2.133,2.133,0,0,0,3.027-3.006l-4.239-4.267a2.133,2.133,0,0,0-3.027,3.006Z" transform="translate(-129.522 -20.196)"/><path class="a" d="M157.784,103.4a9.541,9.541,0,0,0-5.333,1.621v-.555a9.6,9.6,0,0,0-14.933-7.979v-.555A9.6,9.6,0,0,0,122.6,87.946v-17.4a9.557,9.557,0,1,0-19.106,0l0,42.163c-4.536-6.569-13.5-9.831-20.348-7.157a13.021,13.021,0,0,0-2.581,1.416,5.583,5.583,0,0,0-2.75,5.24c-.192,1.116.073,1.434,2.609,4.465,3.266,3.908,10.063,12.039,14.385,20.081.137.218,2.187,3.441,5.077,7.354a2.071,2.071,0,0,1,.87.593c.879,1.058,5.76,4.424,8.676,6.434,2.253,1.553,4.03,2.78,4.856,3.467a2.134,2.134,0,1,1-2.731,3.279c-.679-.565-2.558-1.86-4.546-3.232-.51-.352-1-.691-1.479-1.024l-.017,3.132c0,10.033,7.889,17.041,19.187,17.041h19.074c8.847,0,15.917-5.186,17.589-12.907.179-.826.367-1.506.552-2.084-3,1.075-5.786,1.85-6.782,2.118a2.179,2.179,0,0,1-.555.072,2.134,2.134,0,0,1-.555-4.194,71.848,71.848,0,0,0,11.1-3.929,28.394,28.394,0,0,0,2.251-11.5V113A9.612,9.612,0,0,0,157.784,103.4Z" transform="translate(-77.766 -45.8)"/></g></g></g></svg>