<svg xmlns="http://www.w3.org/2000/svg" xmlns:xlink="http://www.w3.org/1999/xlink" width="68.605" height="68.837" viewBox="0 0 68.605 68.837"><defs><style>.a,.c{fill:#fff;}.b{fill:#1ad54c;}.c{fill-rule:evenodd;}.d{filter:url(#a);}</style><filter id="a" x="0" y="0" width="68.605" height="68.837" filterUnits="userSpaceOnUse"><feOffset dy="3" input="SourceAlpha"/><feGaussianBlur stdDeviation="3" result="b"/><feFlood flood-opacity="0.161"/><feComposite operator="in" in2="b"/><feComposite in="SourceGraphic"/></filter></defs><g transform="translate(6.922 3.918)"><path class="a" d="M10.894,63.555l3.7-13.521A26.1,26.1,0,1,1,37.215,63.1H37.2a26.079,26.079,0,0,1-12.472-3.177ZM25.372,55.2l.793.47A21.665,21.665,0,0,0,37.206,58.7h.008A21.692,21.692,0,1,0,18.837,48.532l.516.821-2.192,8Zm0,0" transform="translate(-9.724 -9.725)"/><g class="d" transform="matrix(1, 0, 0, 1, -6.92, -3.92)"><path class="b" d="M19.344,70.22l3.575-13.054A25.2,25.2,0,1,1,44.753,69.783h-.011A25.193,25.193,0,0,1,32.7,66.717Zm0,0" transform="translate(-10.34 -13.38)"/></g><g transform="translate(1.171 1.17)"><path class="a" d="M10.894,63.555l3.7-13.521A26.1,26.1,0,1,1,37.215,63.1H37.2a26.079,26.079,0,0,1-12.472-3.177ZM25.372,55.2l.793.47A21.665,21.665,0,0,0,37.206,58.7h.008A21.692,21.692,0,1,0,18.837,48.532l.516.821-2.192,8Zm0,0" transform="translate(-10.894 -10.895)"/><path class="c" d="M139.185,142.755c-.488-1.086-1-1.108-1.468-1.127-.38-.016-.815-.016-1.25-.016a2.4,2.4,0,0,0-1.739.816,7.311,7.311,0,0,0-2.283,5.439c0,3.209,2.337,6.31,2.663,6.745s4.512,7.23,11.141,9.845c5.509,2.173,6.63,1.741,7.826,1.632s3.858-1.578,4.4-3.1a5.446,5.446,0,0,0,.381-3.1c-.163-.271-.6-.435-1.25-.761s-3.858-1.9-4.456-2.122-1.033-.326-1.467.327-1.684,2.121-2.065,2.555-.761.491-1.413.164a17.833,17.833,0,0,1-5.244-3.237,19.651,19.651,0,0,1-3.628-4.516c-.38-.652-.006-.974.287-1.331a19.666,19.666,0,0,0,1.63-2.23,1.2,1.2,0,0,0-.054-1.143C141.032,147.27,139.765,144.045,139.185,142.755Zm0,0" transform="translate(-119.388 -127.571)"/></g></g></svg>