<svg xmlns="http://www.w3.org/2000/svg" xmlns:xlink="http://www.w3.org/1999/xlink" width="1509" height="353" viewBox="0 0 1509 353"><defs><style>.a{fill:#fff;stroke:#707070;}.b{clip-path:url(#a);}.c{fill:#1bb0dc;}</style><clipPath id="a"><rect class="a" width="1509" height="353" transform="translate(0 7000)"/></clipPath></defs><g class="b" transform="translate(0 -7000)"><g transform="translate(-1185.965 8631.711) rotate(-104)"><path class="c" d="M1102.945,268.217A912.462,912.462,0,0,1,829.034,550.012,903.741,903.741,0,0,1,337.565,699.3l-11.309.089A904.089,904.089,0,0,1-62.915,610.219C-216.782,536.252-387.539,672.138-346.659,837.9l59.793,242.465c70.5,285.9,334.5,473.015,618.186,456.73,284.128,16.875,548.782-170.373,619.352-456.641l228.173-925.108q-35.367,58.265-75.9,112.869" transform="translate(110.423 1334.97)"/><path class="c" d="M-212.883,593.284-306.81,974.143l11.309-.089a903.744,903.744,0,0,0,491.469-149.29A912.469,912.469,0,0,0,469.879,542.969q40.437-54.567,75.9-112.869l39.759-161.264a95.732,95.732,0,0,0-69.98-115.792,602.776,602.776,0,0,0-144.566-17.657c-270.427,0-516.228,183.572-583.875,457.9" transform="translate(743.489 1060.219)"/></g></g></svg>