<svg xmlns="http://www.w3.org/2000/svg" xmlns:xlink="http://www.w3.org/1999/xlink" width="1920" height="2163" viewBox="0 0 1920 2163"><defs><style>.a,.c{fill:#fff;}.a{stroke:#707070;}.b{clip-path:url(#a);}</style><clipPath id="a"><rect class="a" width="1920" height="2163" transform="translate(0 2245)"/></clipPath></defs><g class="b" transform="translate(0 -2245)"><g transform="translate(-635.878 5462.774) rotate(-121)"><path class="c" d="M1870.5,327.728A1393.562,1393.562,0,0,1,1452.164,758.1c-215.761,142.165-473.417,225.727-750.6,228l-17.272.136c-212.852-.835-414.386-49.673-594.364-136.19-234.994-112.965-495.783,94.566-433.349,347.734l91.32,370.305c107.667,436.641,510.869,722.414,944.127,697.543,433.936,25.772,838.13-260.2,945.909-697.408L1986.415,155.349Q1932.4,244.334,1870.5,327.728" transform="translate(110.423 1490.359)"/><path class="c" d="M-163.359,834.712-306.81,1416.381l17.272-.135c277.181-2.277,534.837-85.84,750.6-228A1393.572,1393.572,0,0,0,879.393,757.868q61.758-83.337,115.918-172.379L1056.033,339.2A146.208,146.208,0,0,0,949.156,162.354a920.593,920.593,0,0,0-220.789-26.967c-413.011,0-788.411,280.361-891.726,699.325" transform="translate(1101.527 1060.219)"/></g></g></svg>