<svg xmlns="http://www.w3.org/2000/svg" xmlns:xlink="http://www.w3.org/1999/xlink" width="1920" height="1255" viewBox="0 0 1920 1255"><defs><style>.a{fill:#fff;stroke:#707070;}.b{clip-path:url(#a);}.c{fill:#1bb0dc;}</style><clipPath id="a"><rect class="a" width="1920" height="1255" transform="translate(0 5703)"/></clipPath></defs><g class="b" transform="translate(0 -5703)"><g transform="translate(265.438 8129.109) rotate(-121)"><path class="c" d="M1246.374,279.338A1002.362,1002.362,0,0,1,945.475,588.9c-155.193,102.256-340.52,162.361-539.891,164l-12.423.1A993.163,993.163,0,0,1-34.354,655.035c-169.027-81.254-356.608,68.02-311.7,250.119l65.684,266.354c77.443,314.068,367.458,519.619,679.093,501.73,312.122,18.537,602.851-187.159,680.374-501.632L1329.752,155.349q-38.851,64.005-83.378,123.989" transform="translate(110.423 1364.007)"/><path class="c" d="M-203.629,638.4-306.81,1056.782l12.424-.1c199.371-1.638,384.7-61.743,539.891-164A1002.371,1002.371,0,0,0,546.4,583.126q44.421-59.943,83.378-123.989l43.676-177.152a105.164,105.164,0,0,0-76.875-127.2,662.166,662.166,0,0,0-158.809-19.4c-297.071,0-567.089,201.659-641.4,503.011" transform="translate(810.394 1060.219)"/></g></g></svg>