<svg xmlns="http://www.w3.org/2000/svg" width="222.058" height="138.031" viewBox="0 0 222.058 138.031"><defs><style>.a{fill:#fff;}</style></defs><g transform="translate(-459.5 1846.565)"><path class="a" d="M-423.006,136.84a7.873,7.873,0,0,0-5.758,9.527l22.044,89.38a49.516,49.516,0,0,0,59.932,36.219h0a7.869,7.869,0,0,0,5.756-9.525l-22.041-89.38a49.546,49.546,0,0,0-48.039-37.673,49.6,49.6,0,0,0-11.9,1.453" transform="translate(888.494 -1981.952)"/><path class="a" d="M-299.082,173.06l-7.728,31.335.93-.007A74.355,74.355,0,0,0-265.444,192.1a75.073,75.073,0,0,0,22.536-23.184q3.327-4.489,6.245-9.286l3.271-13.268a7.833,7.833,0,0,0,.219-2.262,7.871,7.871,0,0,0-5.976-7.265,49.593,49.593,0,0,0-11.894-1.453,49.537,49.537,0,0,0-48.038,37.673" transform="translate(914.723 -1981.952)"/><path class="a" d="M-233.034,164.635A75.072,75.072,0,0,1-255.57,187.82,74.355,74.355,0,0,1-296.006,200.1l-.93.007a74.383,74.383,0,0,1-32.019-7.337c-12.659-6.086-26.708,5.094-23.345,18.733l4.919,19.949a49.521,49.521,0,0,0,50.861,37.577,49.519,49.519,0,0,0,50.957-37.57l18.773-76.113q-2.91,4.794-6.245,9.286" transform="translate(904.849 -1977.667)"/></g></svg>